DesignModeler IGES Output Version 5.3                                   S      1
1H,,1H;,6HFunnel,10HFunnel.igs,27HBy Siemens PLM Incorporated,25HXPlus GG      1
ENERIC/IGES 19.0.9,32,38, 6,308,15,6HFunnel,1.000,6,1HM,1,1.000,15H20190G      2
919.004205,1.0e-008,0.00,8Hsakhadke,1H ,11,0,15H20190919.004205;        G      3
     116       1       0       1       0       0       0       000010001D      1
     116       1       0       1       0       0       0               0D      2
     123       2       0       1       0       0       0       000010201D      3
     123       1       0       1       0       0       0               0D      4
     123       3       0       1       0       0       0       000010201D      5
     123       1       0       1       0       0       0               0D      6
     192       4       0       1       0       0       0       000010001D      7
     192       1       0       1       1       0       0               0D      8
     124       5       0       1       0       0       0       000010001D      9
     124       1       0       1       0       0       0               0D     10
     100       6       0       1       0       0       9       000010001D     11
     100       1       0       1       0       0       0               0D     12
     502       7       0       1       0       0       0       000010001D     13
     502       1       0      11       1       0       0               0D     14
     124      18       0       1       0       0       0       000010001D     15
     124       1       0       1       0       0       0               0D     16
     100      19       0       1       0       0      15       000010001D     17
     100       1       0       1       0       0       0               0D     18
     110      20       0       1       0       0       0       000010001D     19
     110       1       0       2       0       0       0               0D     20
     124      22       0       1       0       0       0       000010001D     21
     124       1       0       1       0       0       0               0D     22
     100      23       0       1       0       0      21       000010001D     23
     100       1       0       1       0       0       0               0D     24
     110      24       0       1       0       0       0       000010001D     25
     110       1       0       2       0       0       0               0D     26
     124      26       0       1       0       0       0       000010001D     27
     124       1       0       1       0       0       0               0D     28
     100      27       0       1       0       0      27       000010001D     29
     100       1       0       1       0       0       0               0D     30
     110      28       0       1       0       0       0       000010001D     31
     110       1       0       2       0       0       0               0D     32
     124      30       0       1       0       0       0       000010001D     33
     124       1       0       1       0       0       0               0D     34
     100      31       0       1       0       0      33       000010001D     35
     100       1       0       1       0       0       0               0D     36
     110      32       0       1       0       0       0       000010001D     37
     110       1       0       2       0       0       0               0D     38
     124      34       0       1       0       0       0       000010001D     39
     124       1       0       1       0       0       0               0D     40
     100      35       0       1       0       0      39       000010001D     41
     100       1       0       1       0       0       0               0D     42
     110      36       0       1       0       0       0       000010001D     43
     110       1       0       2       0       0       0               0D     44
     124      38       0       1       0       0       0       000010001D     45
     124       1       0       1       0       0       0               0D     46
     100      39       0       1       0       0      45       000010001D     47
     100       1       0       1       0       0       0               0D     48
     110      40       0       1       0       0       0       000010001D     49
     110       1       0       2       0       0       0               0D     50
     124      42       0       1       0       0       0       000010001D     51
     124       1       0       1       0       0       0               0D     52
     100      43       0       1       0       0      51       000010001D     53
     100       1       0       1       0       0       0               0D     54
     110      44       0       1       0       0       0       000010001D     55
     110       1       0       2       0       0       0               0D     56
     124      46       0       1       0       0       0       000010001D     57
     124       1       0       1       0       0       0               0D     58
     100      47       0       1       0       0      57       000010001D     59
     100       1       0       1       0       0       0               0D     60
     110      48       0       1       0       0       0       000010001D     61
     110       1       0       2       0       0       0               0D     62
     124      50       0       1       0       0       0       000010001D     63
     124       1       0       1       0       0       0               0D     64
     100      51       0       1       0       0      63       000010001D     65
     100       1       0       1       0       0       0               0D     66
     110      52       0       1       0       0       0       000010001D     67
     110       1       0       1       0       0       0               0D     68
     124      53       0       1       0       0       0       000010001D     69
     124       1       0       1       0       0       0               0D     70
     100      54       0       1       0       0      69       000010001D     71
     100       1       0       1       0       0       0               0D     72
     110      55       0       1       0       0       0       000010001D     73
     110       1       0       1       0       0       0               0D     74
     124      56       0       1       0       0       0       000010001D     75
     124       1       0       1       0       0       0               0D     76
     100      57       0       1       0       0      75       000010001D     77
     100       1       0       1       0       0       0               0D     78
     124      58       0       1       0       0       0       000010001D     79
     124       1       0       1       0       0       0               0D     80
     100      59       0       1       0       0      79       000010001D     81
     100       1       0       1       0       0       0               0D     82
     124      60       0       1       0       0       0       000010001D     83
     124       1       0       1       0       0       0               0D     84
     100      61       0       1       0       0      83       000010001D     85
     100       1       0       1       0       0       0               0D     86
     110      62       0       1       0       0       0       000010001D     87
     110       1       0       2       0       0       0               0D     88
     110      64       0       1       0       0       0       000010001D     89
     110       1       0       1       0       0       0               0D     90
     124      65       0       1       0       0       0       000010001D     91
     124       1       0       1       0       0       0               0D     92
     100      66       0       1       0       0      91       000010001D     93
     100       1       0       1       0       0       0               0D     94
     124      67       0       1       0       0       0       000010001D     95
     124       1       0       1       0       0       0               0D     96
     100      68       0       1       0       0      95       000010001D     97
     100       1       0       1       0       0       0               0D     98
     110      69       0       1       0       0       0       000010001D     99
     110       1       0       2       0       0       0               0D    100
     124      71       0       1       0       0       0       000010001D    101
     124       1       0       1       0       0       0               0D    102
     100      72       0       1       0       0     101       000010001D    103
     100       1       0       1       0       0       0               0D    104
     110      73       0       1       0       0       0       000010001D    105
     110       1       0       2       0       0       0               0D    106
     124      75       0       1       0       0       0       000010001D    107
     124       1       0       1       0       0       0               0D    108
     100      76       0       1       0       0     107       000010001D    109
     100       1       0       1       0       0       0               0D    110
     110      77       0       1       0       0       0       000010001D    111
     110       1       0       2       0       0       0               0D    112
     124      79       0       1       0       0       0       000010001D    113
     124       1       0       1       0       0       0               0D    114
     100      80       0       1       0       0     113       000010001D    115
     100       1       0       1       0       0       0               0D    116
     110      81       0       1       0       0       0       000010001D    117
     110       1       0       2       0       0       0               0D    118
     124      83       0       1       0       0       0       000010001D    119
     124       1       0       1       0       0       0               0D    120
     100      84       0       1       0       0     119       000010001D    121
     100       1       0       1       0       0       0               0D    122
     110      85       0       1       0       0       0       000010001D    123
     110       1       0       2       0       0       0               0D    124
     124      87       0       1       0       0       0       000010001D    125
     124       1       0       1       0       0       0               0D    126
     100      88       0       1       0       0     125       000010001D    127
     100       1       0       1       0       0       0               0D    128
     110      89       0       1       0       0       0       000010001D    129
     110       1       0       2       0       0       0               0D    130
     110      91       0       1       0       0       0       000010001D    131
     110       1       0       2       0       0       0               0D    132
     124      93       0       1       0       0       0       000010001D    133
     124       1       0       1       0       0       0               0D    134
     100      94       0       1       0       0     133       000010001D    135
     100       1       0       1       0       0       0               0D    136
     124      95       0       1       0       0       0       000010001D    137
     124       1       0       1       0       0       0               0D    138
     100      96       0       1       0       0     137       000010001D    139
     100       1       0       1       0       0       0               0D    140
     110      97       0       1       0       0       0       000010001D    141
     110       1       0       2       0       0       0               0D    142
     124      99       0       1       0       0       0       000010001D    143
     124       1       0       1       0       0       0               0D    144
     100     100       0       1       0       0     143       000010001D    145
     100       1       0       1       0       0       0               0D    146
     504     101       0       1       0       0       0       000010001D    147
     504       1       0      11       1       0       0               0D    148
     508     112       0       1       0       0       0       000010001D    149
     508       1       0       1       1       0       0               0D    150
     510     113       0       1       0       0       0       000010001D    151
     510       1       0       1       1       0       0               0D    152
     116     114       0       1       0       0       0       000010001D    153
     116       1       0       1       0       0       0               0D    154
     123     115       0       1       0       0       0       000010201D    155
     123       1       0       1       0       0       0               0D    156
     123     116       0       1       0       0       0       000010201D    157
     123       1       0       1       0       0       0               0D    158
     192     117       0       1       0       0       0       000010001D    159
     192       1       0       1       1       0       0               0D    160
     508     118       0       1       0       0       0       000010001D    161
     508       1       0       1       1       0       0               0D    162
     510     119       0       1       0       0       0       000010001D    163
     510       1       0       1       1       0       0               0D    164
     116     120       0       1       0       0       0       000010001D    165
     116       1       0       1       0       0       0               0D    166
     123     121       0       1       0       0       0       000010201D    167
     123       1       0       1       0       0       0               0D    168
     123     122       0       1       0       0       0       000010201D    169
     123       1       0       1       0       0       0               0D    170
     194     123       0       1       0       0       0       000010001D    171
     194       1       0       1       1       0       0               0D    172
     508     124       0       1       0       0       0       000010001D    173
     508       1       0       1       1       0       0               0D    174
     510     125       0       1       0       0       0       000010001D    175
     510       1       0       1       1       0       0               0D    176
     116     126       0       1       0       0       0       000010001D    177
     116       1       0       1       0       0       0               0D    178
     123     127       0       1       0       0       0       000010201D    179
     123       1       0       1       0       0       0               0D    180
     123     128       0       1       0       0       0       000010201D    181
     123       1       0       1       0       0       0               0D    182
     192     129       0       1       0       0       0       000010001D    183
     192       1       0       1       1       0       0               0D    184
     508     130       0       1       0       0       0       000010001D    185
     508       1       0       1       1       0       0               0D    186
     510     131       0       1       0       0       0       000010001D    187
     510       1       0       1       1       0       0               0D    188
     116     132       0       1       0       0       0       000010001D    189
     116       1       0       1       0       0       0               0D    190
     123     133       0       1       0       0       0       000010201D    191
     123       1       0       1       0       0       0               0D    192
     123     134       0       1       0       0       0       000010201D    193
     123       1       0       1       0       0       0               0D    194
     192     135       0       1       0       0       0       000010001D    195
     192       1       0       1       1       0       0               0D    196
     508     136       0       1       0       0       0       000010001D    197
     508       1       0       1       1       0       0               0D    198
     510     137       0       1       0       0       0       000010001D    199
     510       1       0       1       1       0       0               0D    200
     116     138       0       1       0       0       0       000010001D    201
     116       1       0       1       0       0       0               0D    202
     123     139       0       1       0       0       0       000010201D    203
     123       1       0       1       0       0       0               0D    204
     123     140       0       1       0       0       0       000010201D    205
     123       1       0       1       0       0       0               0D    206
     192     141       0       1       0       0       0       000010001D    207
     192       1       0       1       1       0       0               0D    208
     508     142       0       1       0       0       0       000010001D    209
     508       1       0       1       1       0       0               0D    210
     510     143       0       1       0       0       0       000010001D    211
     510       1       0       1       1       0       0               0D    212
     116     144       0       1       0       0       0       000010001D    213
     116       1       0       1       0       0       0               0D    214
     123     145       0       1       0       0       0       000010201D    215
     123       1       0       1       0       0       0               0D    216
     123     146       0       1       0       0       0       000010201D    217
     123       1       0       1       0       0       0               0D    218
     194     147       0       1       0       0       0       000010001D    219
     194       1       0       1       1       0       0               0D    220
     508     148       0       1       0       0       0       000010001D    221
     508       1       0       1       1       0       0               0D    222
     510     149       0       1       0       0       0       000010001D    223
     510       1       0       1       1       0       0               0D    224
     116     150       0       1       0       0       0       000010001D    225
     116       1       0       1       0       0       0               0D    226
     123     151       0       1       0       0       0       000010201D    227
     123       1       0       1       0       0       0               0D    228
     123     152       0       1       0       0       0       000010201D    229
     123       1       0       1       0       0       0               0D    230
     194     153       0       1       0       0       0       000010001D    231
     194       1       0       1       1       0       0               0D    232
     508     154       0       1       0       0       0       000010001D    233
     508       1       0       1       1       0       0               0D    234
     510     155       0       1       0       0       0       000010001D    235
     510       1       0       1       1       0       0               0D    236
     116     156       0       1       0       0       0       000010001D    237
     116       1       0       1       0       0       0               0D    238
     123     157       0       1       0       0       0       000010201D    239
     123       1       0       1       0       0       0               0D    240
     123     158       0       1       0       0       0       000010201D    241
     123       1       0       1       0       0       0               0D    242
     192     159       0       1       0       0       0       000010001D    243
     192       1       0       1       1       0       0               0D    244
     508     160       0       1       0       0       0       000010001D    245
     508       1       0       1       1       0       0               0D    246
     510     161       0       1       0       0       0       000010001D    247
     510       1       0       1       1       0       0               0D    248
     116     162       0       1       0       0       0       000010001D    249
     116       1       0       1       0       0       0               0D    250
     123     163       0       1       0       0       0       000010201D    251
     123       1       0       1       0       0       0               0D    252
     123     164       0       1       0       0       0       000010201D    253
     123       1       0       1       0       0       0               0D    254
     194     165       0       1       0       0       0       000010001D    255
     194       1       0       1       1       0       0               0D    256
     508     166       0       1       0       0       0       000010001D    257
     508       1       0       1       1       0       0               0D    258
     510     167       0       1       0       0       0       000010001D    259
     510       1       0       1       1       0       0               0D    260
     116     168       0       1       0       0       0       000010001D    261
     116       1       0       1       0       0       0               0D    262
     123     169       0       1       0       0       0       000010201D    263
     123       1       0       1       0       0       0               0D    264
     123     170       0       1       0       0       0       000010201D    265
     123       1       0       1       0       0       0               0D    266
     194     171       0       1       0       0       0       000010001D    267
     194       1       0       1       1       0       0               0D    268
     508     172       0       1       0       0       0       000010001D    269
     508       1       0       1       1       0       0               0D    270
     510     173       0       1       0       0       0       000010001D    271
     510       1       0       1       1       0       0               0D    272
     116     174       0       1       0       0       0       000010001D    273
     116       1       0       1       0       0       0               0D    274
     123     175       0       1       0       0       0       000010201D    275
     123       1       0       1       0       0       0               0D    276
     123     176       0       1       0       0       0       000010201D    277
     123       1       0       1       0       0       0               0D    278
     194     177       0       1       0       0       0       000010001D    279
     194       1       0       1       1       0       0               0D    280
     508     178       0       1       0       0       0       000010001D    281
     508       1       0       1       1       0       0               0D    282
     510     179       0       1       0       0       0       000010001D    283
     510       1       0       1       1       0       0               0D    284
     116     180       0       1       0       0       0       000010001D    285
     116       1       0       1       0       0       0               0D    286
     123     181       0       1       0       0       0       000010201D    287
     123       1       0       1       0       0       0               0D    288
     123     182       0       1       0       0       0       000010201D    289
     123       1       0       1       0       0       0               0D    290
     192     183       0       1       0       0       0       000010001D    291
     192       1       0       1       1       0       0               0D    292
     508     184       0       1       0       0       0       000010001D    293
     508       1       0       1       1       0       0               0D    294
     510     185       0       1       0       0       0       000010001D    295
     510       1       0       1       1       0       0               0D    296
     116     186       0       1       0       0       0       000010001D    297
     116       1       0       1       0       0       0               0D    298
     123     187       0       1       0       0       0       000010201D    299
     123       1       0       1       0       0       0               0D    300
     123     188       0       1       0       0       0       000010201D    301
     123       1       0       1       0       0       0               0D    302
     192     189       0       1       0       0       0       000010001D    303
     192       1       0       1       1       0       0               0D    304
     508     190       0       1       0       0       0       000010001D    305
     508       1       0       1       1       0       0               0D    306
     510     191       0       1       0       0       0       000010001D    307
     510       1       0       1       1       0       0               0D    308
     116     192       0       1       0       0       0       000010001D    309
     116       1       0       1       0       0       0               0D    310
     123     193       0       1       0       0       0       000010201D    311
     123       1       0       1       0       0       0               0D    312
     123     194       0       1       0       0       0       000010201D    313
     123       1       0       1       0       0       0               0D    314
     190     195       0       1       0       0       0       000010001D    315
     190       1       0       1       1       0       0               0D    316
     508     196       0       1       0       0       0       000010001D    317
     508       1       0       1       1       0       0               0D    318
     508     197       0       1       0       0       0       000010001D    319
     508       1       0       1       1       0       0               0D    320
     510     198       0       1       0       0       0       000010001D    321
     510       1       0       1       1       0       0               0D    322
     116     199       0       1       0       0       0       000010001D    323
     116       1       0       1       0       0       0               0D    324
     123     200       0       1       0       0       0       000010201D    325
     123       1       0       1       0       0       0               0D    326
     123     201       0       1       0       0       0       000010201D    327
     123       1       0       1       0       0       0               0D    328
     194     202       0       1       0       0       0       000010001D    329
     194       1       0       1       1       0       0               0D    330
     508     203       0       1       0       0       0       000010001D    331
     508       1       0       1       1       0       0               0D    332
     510     204       0       1       0       0       0       000010001D    333
     510       1       0       1       1       0       0               0D    334
     116     205       0       1       0       0       0       000010001D    335
     116       1       0       1       0       0       0               0D    336
     123     206       0       1       0       0       0       000010201D    337
     123       1       0       1       0       0       0               0D    338
     123     207       0       1       0       0       0       000010201D    339
     123       1       0       1       0       0       0               0D    340
     190     208       0       1       0       0       0       000010001D    341
     190       1       0       1       1       0       0               0D    342
     508     209       0       1       0       0       0       000010001D    343
     508       1       0       1       1       0       0               0D    344
     508     210       0       1       0       0       0       000010001D    345
     508       1       0       1       1       0       0               0D    346
     510     211       0       1       0       0       0       000010001D    347
     510       1       0       1       1       0       0               0D    348
     116     212       0       1       0       0       0       000010001D    349
     116       1       0       1       0       0       0               0D    350
     123     213       0       1       0       0       0       000010201D    351
     123       1       0       1       0       0       0               0D    352
     123     214       0       1       0       0       0       000010201D    353
     123       1       0       1       0       0       0               0D    354
     194     215       0       1       0       0       0       000010001D    355
     194       1       0       1       1       0       0               0D    356
     508     216       0       1       0       0       0       000010001D    357
     508       1       0       1       1       0       0               0D    358
     510     217       0       1       0       0       0       000010001D    359
     510       1       0       1       1       0       0               0D    360
     116     218       0       1       0       0       0       000010001D    361
     116       1       0       1       0       0       0               0D    362
     123     219       0       1       0       0       0       000010201D    363
     123       1       0       1       0       0       0               0D    364
     123     220       0       1       0       0       0       000010201D    365
     123       1       0       1       0       0       0               0D    366
     194     221       0       1       0       0       0       000010001D    367
     194       1       0       1       1       0       0               0D    368
     508     222       0       1       0       0       0       000010001D    369
     508       1       0       1       1       0       0               0D    370
     510     223       0       1       0       0       0       000010001D    371
     510       1       0       1       1       0       0               0D    372
     116     224       0       1       0       0       0       000010001D    373
     116       1       0       1       0       0       0               0D    374
     123     225       0       1       0       0       0       000010201D    375
     123       1       0       1       0       0       0               0D    376
     123     226       0       1       0       0       0       000010201D    377
     123       1       0       1       0       0       0               0D    378
     194     227       0       1       0       0       0       000010001D    379
     194       1       0       1       1       0       0               0D    380
     508     228       0       1       0       0       0       000010001D    381
     508       1       0       1       1       0       0               0D    382
     510     229       0       1       0       0       0       000010001D    383
     510       1       0       1       1       0       0               0D    384
     116     230       0       1       0       0       0       000010001D    385
     116       1       0       1       0       0       0               0D    386
     123     231       0       1       0       0       0       000010201D    387
     123       1       0       1       0       0       0               0D    388
     123     232       0       1       0       0       0       000010201D    389
     123       1       0       1       0       0       0               0D    390
     194     233       0       1       0       0       0       000010001D    391
     194       1       0       1       1       0       0               0D    392
     508     234       0       1       0       0       0       000010001D    393
     508       1       0       1       1       0       0               0D    394
     510     235       0       1       0       0       0       000010001D    395
     510       1       0       1       1       0       0               0D    396
     116     236       0       1       0       0       0       000010001D    397
     116       1       0       1       0       0       0               0D    398
     123     237       0       1       0       0       0       000010201D    399
     123       1       0       1       0       0       0               0D    400
     123     238       0       1       0       0       0       000010201D    401
     123       1       0       1       0       0       0               0D    402
     194     239       0       1       0       0       0       000010001D    403
     194       1       0       1       1       0       0               0D    404
     508     240       0       1       0       0       0       000010001D    405
     508       1       0       1       1       0       0               0D    406
     510     241       0       1       0       0       0       000010001D    407
     510       1       0       1       1       0       0               0D    408
     514     242       0       1       0       0       0       000010001D    409
     514       1       0       3       1       0       0               0D    410
     186     245       0       1       0       0       0       000000001D    411
     186       1       0       1       0       0       0               0D    412
116,-0.46586891823058,0.,0.;                                           1P      1
123,-1.,0.,0.;                                                         3P      2
123,0.,0.,1.;                                                          5P      3
192,1,3,3.683,5;                                                       7P      4
124,0.,0.,1.,9.31737836460935,0.,1.,0.,0.,-1.,0.,0.,0.;                9P      5
100,0.,0.,0.,3.81000000000025,0.,-3.81000000000025,0.;                11P      6
502,24,9.3173783646091,-0.,3.81,2.794,0.,-1.27,7.08017877684298,      13P      7
0.,-3.683,7.0313783646091,-0.,3.81,0.,-0.,-1.143,                     13P      8
3.75077357197354,0.,-1.96166432435642,3.69546909090886,-0.,           13P      9
2.0828,2.84280041223134,0.,-1.143,5.34112381915594,0.,-2.286,0.,      13P     10
0.,1.143,3.75077357197354,0.,1.96166432435642,2.794,0.,1.27,          13P     11
9.3173783646091,0.,-3.683,2.84280041223134,0.,1.143,                  13P     12
5.34112381915594,-0.,2.286,0.,0.,-1.27,5.39642830022062,0.,           13P     13
-2.16486432435642,9.3173783646091,0.,3.683,7.0313783646091,0.,        13P     14
-3.81,3.69546909090886,0.,-2.0828,5.39642830022062,-0.,               13P     15
2.16486432435642,0.,0.,1.27,9.3173783646091,0.,-3.81,                 13P     16
7.08017877684298,-0.,3.683;                                           13P     17
124,0.,0.,-1.,9.31737836460935,0.,-1.,0.,0.,-1.,0.,0.,0.;             15P     18
100,0.,0.,0.,3.81000000000025,0.,-3.81000000000025,0.;                17P     19
110,9.3173783646091,-0.00000000000025,3.81000000000025,               19P     20
7.0313783646091,-0.00000000000025,3.81000000000025;                   19P     21
124,0.,0.,1.,7.03137836460935,0.,1.,0.,0.,-1.,0.,0.,0.;               21P     22
100,0.,0.,0.,3.81000000000025,0.,-3.81000000000025,0.;                23P     23
110,9.3173783646091,0.00000000000025,-3.81000000000025,               25P     24
7.0313783646091,0.00000000000025,-3.81000000000025;                   25P     25
124,0.,0.,1.,5.34112381915619,0.,1.,0.,0.,-1.,0.,0.,0.;               27P     26
100,0.,0.,0.,2.28600000000025,0.,-2.28600000000025,0.;                29P     27
110,7.03137836460909,0.00000000000025,-3.81000000000001,              31P     28
5.34112381915529,0.00000000000025,-2.28600000000072;                  31P     29
124,0.,0.,-1.,7.03137836460935,0.,-1.,0.,0.,-1.,0.,0.,0.;             33P     30
100,0.,0.,0.,3.81000000000025,0.,-3.81000000000025,0.;                35P     31
110,7.03137836460909,-0.00000000000025,3.81000000000001,              37P     32
5.34112381915529,-0.00000000000025,2.28600000000072;                  37P     33
124,0.,0.,-1.,5.34112381915619,0.,-1.,0.,0.,-1.,0.,0.,0.;             39P     34
100,0.,0.,0.,2.28600000000025,0.,-2.28600000000025,0.;                41P     35
110,5.34112381915591,-0.00000000000025,2.28600000000022,              43P     36
3.69546909090886,-0.00000000000025,2.08279999999999;                  43P     37
124,0.,0.,1.,3.69546909090911,0.,1.,0.,0.,-1.,0.,0.,0.;               45P     38
100,0.,0.,0.,2.08280000000025,0.,-2.08280000000025,0.;                47P     39
110,5.34112381915591,0.00000000000025,-2.28600000000022,              49P     40
3.69546909090886,0.00000000000025,-2.08279999999999;                  49P     41
124,0.,0.,1.,2.79400000000025,0.,1.,0.,0.,-1.,0.,0.,0.;               51P     42
100,0.,0.,0.,1.27000000000025,0.,-1.27000000000025,0.;                53P     43
110,3.69546909090885,0.00000000000025,-2.08280000000001,              55P     44
2.79399999999988,0.00000000000025,-1.27000000000013;                  55P     45
124,0.,0.,-1.,3.69546909090911,0.,-1.,0.,0.,-1.,0.,0.,0.;             57P     46
100,0.,0.,0.,2.08280000000025,0.,-2.08280000000025,0.;                59P     47
110,3.69546909090885,-0.00000000000025,2.08280000000001,              61P     48
2.79399999999988,-0.00000000000025,1.27000000000013;                  61P     49
124,0.,0.,-1.,2.79400000000025,0.,-1.,0.,0.,-1.,0.,0.,0.;             63P     50
100,0.,0.,0.,1.27000000000025,0.,-1.27000000000025,0.;                65P     51
110,2.794,0.,1.27000000000025,0.,0.,1.27000000000025;                 67P     52
124,0.,0.,1.,0.,0.,1.,0.,0.,-1.,0.,0.,0.;                             69P     53
100,0.,0.,0.,1.27000000000025,0.,-1.27000000000025,0.;                71P     54
110,2.794,0.,-1.27000000000025,0.,0.,-1.27000000000025;               73P     55
124,0.,0.,-1.,0.,0.,-1.,0.,0.,-1.,0.,0.,0.;                           75P     56
100,0.,0.,0.,1.27000000000025,0.,-1.27000000000025,0.;                77P     57
124,0.,0.,1.,0.,0.,1.,0.,0.,-1.,0.,0.,0.;                             79P     58
100,0.,0.,0.,1.14300000000025,0.,-1.14300000000025,0.;                81P     59
124,0.,0.,1.,0.,0.,-1.,0.,0.,1.,0.,0.,0.;                             83P     60
100,0.,0.,0.,1.14300000000025,0.,-1.14300000000025,0.;                85P     61
110,2.84280041223134,0.,-1.14300000000025,0.,0.,                      87P     62
-1.14300000000025;                                                    87P     63
110,0.,0.,1.14300000000025,2.84280041223134,0.,1.14300000000025;      89P     64
124,0.,0.,1.,2.84280041223159,0.,1.,0.,0.,-1.,0.,0.,0.;               91P     65
100,0.,0.,0.,1.14300000000025,0.,-1.14300000000025,0.;                93P     66
124,0.,0.,1.,3.75077357197379,0.,1.,0.,0.,-1.,0.,0.,0.;               95P     67
100,0.,0.,0.,1.96166432435667,0.,-1.96166432435667,0.;                97P     68
110,3.75077357197353,0.,1.96166432435643,2.84280041223197,0.,         99P     69
1.1429999999993;                                                      99P     70
124,0.,0.,-1.,2.84280041223159,0.,-1.,0.,0.,-1.,0.,0.,0.;            101P     71
100,0.,0.,0.,1.14300000000025,0.,-1.14300000000025,0.;               103P     72
110,3.75077357197353,0.,-1.96166432435643,2.84280041223197,0.,       105P     73
-1.1429999999993;                                                    105P     74
124,0.,0.,-1.,3.75077357197379,0.,-1.,0.,0.,-1.,0.,0.,0.;            107P     75
100,0.,0.,0.,1.96166432435667,0.,-1.96166432435667,0.;               109P     76
110,5.39642830022059,0.00000000000025,-2.16486432435664,             111P     77
3.75077357197354,0.00000000000025,-1.96166432435641;                 111P     78
124,0.,0.,1.,5.39642830022087,0.,1.,0.,0.,-1.,0.,0.,0.;              113P     79
100,0.,0.,0.,2.16486432435667,0.,-2.16486432435667,0.;               115P     80
110,5.39642830022059,-0.00000000000025,2.16486432435664,             117P     81
3.75077357197354,-0.00000000000025,1.96166432435641;                 117P     82
124,0.,0.,1.,7.08017877684323,0.,1.,0.,0.,-1.,0.,0.,0.;              119P     83
100,0.,0.,0.,3.68300000000025,0.,-3.68300000000025,0.;               121P     84
110,7.08017877684297,-0.00000000000025,3.68300000000001,             123P     85
5.39642830022036,-0.00000000000025,2.1648643243567;                  123P     86
124,0.,0.,-1.,5.39642830022087,0.,-1.,0.,0.,-1.,0.,0.,0.;            125P     87
100,0.,0.,0.,2.16486432435667,0.,-2.16486432435667,0.;               127P     88
110,7.08017877684297,0.00000000000025,-3.68300000000001,             129P     89
5.39642830022036,0.00000000000025,-2.1648643243567;                  129P     90
110,9.3173783646091,0.00000000000025,-3.68300000000025,              131P     91
7.08017877684298,0.00000000000025,-3.68300000000025;                 131P     92
124,0.,0.,-1.,7.08017877684323,0.,-1.,0.,0.,-1.,0.,0.,0.;            133P     93
100,0.,0.,0.,3.68300000000025,0.,-3.68300000000025,0.;               135P     94
124,0.,0.,1.,9.31737836460935,0.,-1.,0.,0.,1.,0.,0.,0.;              137P     95
100,0.,0.,0.,3.68300000000025,0.,-3.68300000000025,0.;               139P     96
110,9.3173783646091,-0.00000000000025,3.68300000000025,              141P     97
7.08017877684298,-0.00000000000025,3.68300000000025;                 141P     98
124,0.,0.,1.,9.31737836460935,0.,1.,0.,0.,-1.,0.,0.,0.;              143P     99
100,0.,0.,0.,3.68300000000025,0.,-3.68300000000025,0.;               145P    100
504,44,11,13,23,13,1,17,13,23,13,1,19,13,1,13,4,23,13,19,13,4,       147P    101
25,13,23,13,19,29,13,9,13,15,31,13,19,13,9,35,13,19,13,4,37,13,      147P    102
4,13,15,41,13,9,13,15,43,13,15,13,7,47,13,20,13,7,49,13,9,13,20,     147P    103
53,13,2,13,12,55,13,20,13,2,59,13,20,13,7,61,13,7,13,12,65,13,2,     147P    104
13,12,67,13,12,13,22,71,13,16,13,22,73,13,2,13,16,77,13,16,13,       147P    105
22,81,13,5,13,10,85,13,10,13,5,87,13,8,13,5,89,13,10,13,14,93,       147P    106
13,8,13,14,97,13,6,13,11,99,13,11,13,14,103,13,8,13,14,105,13,6,     147P    107
13,8,109,13,6,13,11,111,13,17,13,6,115,13,17,13,21,117,13,21,13,     147P    108
11,121,13,3,13,24,123,13,24,13,21,127,13,17,13,21,129,13,3,13,       147P    109
17,131,13,13,13,3,135,13,3,13,24,139,13,18,13,13,141,13,18,13,       147P    110
24,145,13,13,13,18;                                                  147P    111
508,4,0,147,40,1,0,0,147,41,1,0,0,147,43,0,0,0,147,42,1,0;           149P    112
510,7,1,1,149;                                                       151P    113
116,-0.46586891823058,0.,0.;                                         153P    114
123,-1.,0.,0.;                                                       155P    115
123,0.,0.,1.;                                                        157P    116
192,153,155,3.683,157;                                               159P    117
508,4,0,147,43,1,0,0,147,36,0,0,0,147,40,0,0,0,147,44,1,0;           161P    118
510,159,1,1,161;                                                     163P    119
116,6.2383035385318,0.,0.;                                           165P    120
123,1.,0.,0.;                                                        167P    121
123,0.,0.,1.;                                                        169P    122
194,165,167,2.92393216217732,42.03906386583206,169;                  171P    123
508,4,0,147,36,1,0,0,147,37,1,0,0,147,34,0,0,0,147,39,0,0;           173P    124
510,171,1,1,173;                                                     175P    125
116,-0.46586891823058,0.,0.;                                         177P    126
123,-1.,0.,0.;                                                       179P    127
123,0.,0.,1.;                                                        181P    128
192,177,179,1.143,181;                                               183P    129
508,4,0,147,30,0,0,0,147,25,1,0,0,147,24,0,0,0,147,26,1,0;           185P    130
510,183,1,1,185;                                                     187P    131
116,-0.46586891823058,0.,0.;                                         189P    132
123,-1.,0.,0.;                                                       191P    133
123,0.,0.,1.;                                                        193P    134
192,189,191,1.27,193;                                                195P    135
508,4,0,147,18,1,0,0,147,19,1,0,0,147,22,0,0,0,147,21,0,0;           197P    136
510,195,1,1,197;                                                     199P    137
116,-0.46586891823058,0.,0.;                                         201P    138
123,-1.,0.,0.;                                                       203P    139
123,0.,0.,1.;                                                        205P    140
192,201,203,1.27,205;                                                207P    141
508,4,0,147,20,1,0,0,147,19,0,0,0,147,14,0,0,0,147,21,1,0;           209P    142
510,207,1,1,209;                                                     211P    143
116,3.29678699210244,0.,0.;                                          213P    144
123,1.,0.,0.;                                                        215P    145
123,0.,0.,1.;                                                        217P    146
194,213,215,1.55233216217808,42.03906386583206,217;                  219P    147
508,4,0,147,30,1,0,0,147,29,0,0,0,147,32,0,0,0,147,31,1,0;           221P    148
510,219,1,1,221;                                                     223P    149
116,4.57360093609708,0.,0.;                                          225P    150
123,1.,0.,0.;                                                        227P    151
123,0.,0.,1.;                                                        229P    152
194,225,227,2.06326432435642,7.03906386583467,229;                   231P    153
508,4,0,147,32,1,0,0,147,35,0,0,0,147,38,0,0,0,147,33,1,0;           233P    154
510,231,1,1,233;                                                     235P    155
116,-0.46586891823058,0.,0.;                                         237P    156
123,-1.,0.,0.;                                                       239P    157
123,0.,0.,1.;                                                        241P    158
192,237,239,3.81,241;                                                243P    159
508,4,0,147,2,1,0,0,147,3,1,0,0,147,8,0,0,0,147,5,0,0;               245P    160
510,243,1,1,245;                                                     247P    161
116,6.2383035385318,0.,0.;                                           249P    162
123,1.,0.,0.;                                                        251P    163
123,0.,0.,1.;                                                        253P    164
194,249,251,2.92393216217732,42.03906386583206,253;                  255P    165
508,4,0,147,38,1,0,0,147,37,0,0,0,147,41,0,0,0,147,39,1,0;           257P    166
510,255,1,1,257;                                                     259P    167
116,6.18625109188252,0.,0.;                                          261P    168
123,1.,0.,0.;                                                        263P    169
123,0.,0.,1.;                                                        265P    170
194,261,263,3.048,42.03906386583206,265;                             267P    171
508,4,0,147,6,1,0,0,147,9,0,0,0,147,4,0,0,0,147,7,1,0;               269P    172
510,267,1,1,269;                                                     271P    173
116,4.57360093609708,0.,0.;                                          273P    174
123,1.,0.,0.;                                                        275P    175
123,0.,0.,1.;                                                        277P    176
194,273,275,2.06326432435642,7.03906386583467,277;                   279P    177
508,4,0,147,34,1,0,0,147,35,1,0,0,147,28,0,0,0,147,33,0,0;           281P    178
510,279,1,1,281;                                                     283P    179
116,-0.46586891823058,0.,0.;                                         285P    180
123,-1.,0.,0.;                                                       287P    181
123,0.,0.,1.;                                                        289P    182
192,285,287,1.143,289;                                               291P    183
508,4,0,147,27,1,0,0,147,26,0,0,0,147,23,0,0,0,147,25,0,0;           293P    184
510,291,1,1,293;                                                     295P    185
116,-0.46586891823058,0.,0.;                                         297P    186
123,-1.,0.,0.;                                                       299P    187
123,0.,0.,1.;                                                        301P    188
192,297,299,3.81,301;                                                303P    189
508,4,0,147,4,1,0,0,147,3,0,0,0,147,1,0,0,0,147,5,1,0;               305P    190
510,303,1,1,305;                                                     307P    191
116,0.,0.,0.;                                                        309P    192
123,1.,0.,0.;                                                        311P    193
123,0.,1.,0.;                                                        313P    194
190,309,311,313;                                                     315P    195
508,2,0,147,20,0,0,0,147,22,1,0;                                     317P    196
508,2,0,147,23,1,0,0,147,24,1,0;                                     319P    197
510,315,2,1,317,319;                                                 321P    198
116,4.5182964550324,0.,0.;                                           323P    199
123,1.,0.,0.;                                                        325P    200
123,0.,0.,1.;                                                        327P    201
194,323,325,2.1844,7.03906386583467,327;                             329P    202
508,4,0,147,10,1,0,0,147,11,1,0,0,147,16,0,0,0,147,13,0,0;           331P    203
510,329,1,1,331;                                                     333P    204
116,9.3173783646091,0.,0.;                                           335P    205
123,1.,0.,0.;                                                        337P    206
123,0.,1.,0.;                                                        339P    207
190,335,337,339;                                                     341P    208
508,2,0,147,1,1,0,0,147,2,0,0;                                       343P    209
508,2,0,147,42,0,0,0,147,44,0,0;                                     345P    210
510,341,2,1,343,345;                                                 347P    211
116,3.2447345454557,0.,0.;                                           349P    212
123,1.,0.,0.;                                                        351P    213
123,0.,0.,1.;                                                        353P    214
194,349,351,1.6764,42.03906386583206,353;                            355P    215
508,4,0,147,16,1,0,0,147,17,1,0,0,147,18,0,0,0,147,15,0,0;           357P    216
510,355,1,1,357;                                                     359P    217
116,6.18625109188252,0.,0.;                                          361P    218
123,1.,0.,0.;                                                        363P    219
123,0.,0.,1.;                                                        365P    220
194,361,363,3.048,42.03906386583206,365;                             367P    221
508,4,0,147,8,1,0,0,147,9,1,0,0,147,10,0,0,0,147,7,0,0;              369P    222
510,367,1,1,369;                                                     371P    223
116,4.5182964550324,0.,0.;                                           373P    224
123,1.,0.,0.;                                                        375P    225
123,0.,0.,1.;                                                        377P    226
194,373,375,2.1844,7.03906386583467,377;                             379P    227
508,4,0,147,12,1,0,0,147,11,0,0,0,147,6,0,0,0,147,13,1,0;            381P    228
510,379,1,1,381;                                                     383P    229
116,3.2447345454557,0.,0.;                                           385P    230
123,1.,0.,0.;                                                        387P    231
123,0.,0.,1.;                                                        389P    232
194,385,387,1.6764,42.03906386583206,389;                            391P    233
508,4,0,147,14,1,0,0,147,17,0,0,0,147,12,0,0,0,147,15,1,0;           393P    234
510,391,1,1,393;                                                     395P    235
116,3.29678699210244,0.,0.;                                          397P    236
123,1.,0.,0.;                                                        399P    237
123,0.,0.,1.;                                                        401P    238
194,397,399,1.55233216217808,42.03906386583206,401;                  403P    239
508,4,0,147,28,1,0,0,147,29,1,0,0,147,27,0,0,0,147,31,0,0;           405P    240
510,403,1,1,405;                                                     407P    241
514,22,151,0,163,0,175,0,187,0,199,1,211,1,223,0,235,0,247,1,        409P    242
259,0,271,1,283,0,295,0,307,1,321,0,333,1,347,1,359,1,371,1,383,     409P    243
1,395,1,407,0;                                                       409P    244
186,409,1,0;                                                         411P    245
S      1G      3D    412P    245                                        T      1
