**ABCDEFGHIJKLMNOPQRSTUVWXYZabcdefghijklmnopqrstuvwxyz**************************
**PARASOLID !"#$%&'()*+,-./:;<=>?@[\]^_`{|}~0123456789**************************
**PART1;
MC=AMD64;
MC_MODEL=Intel64 Family 6 Model 85 Stepping 4, GenuineIntel;
MC_ID=unknown;
OS=Windows_NT;
OS_RELEASE=unknown;
FRU=Parasolid Version 30.0, build 298, 12-15-2017;
APPL=SOLIDWORKS 2018-2018056;
SITE=;
USER=unknown;
FORMAT=text;
GUISE=transmit;
KEY=Plate;
FILE=Plate.x_t;
DATE=Wed Mar 27 16:47:10 2019;
**PART2;
SCH=SCH_3000298_30000;
USFLD_SIZE=0;
**PART3;
**END_OF_HEADER*****************************************************************
T51 : TRANSMIT FILE created by modeller version 300029823 SCH_3000298_30000_1300
6205 0 12 33 CCCCCCI4 mesh1006 0 I8 polyline1008 0 CCCCCCCDI5 owner1040 0 CCCCCC
I13 boundary_mesh1006 0 I17 boundary_polyline1008 0 CCCA16 index_map_offset0 0 1
 dA9 index_map82 0 A17 node_id_index_map82 0 A20 schema_embedding_map82 0 A5 chi
ld12 0 A14 lowest_node_id0 0 1 dZ1 191 2 3 0 0 0 0 0 0 1e3 1e-8 0 4 0 1 0 1 1 5
 6 7 8 0 0 9 10 11 0 0 0 0 0 0 81 255 2 2 139 12 1 0 0 0 0 13 0 70 11 CI9 list_t
ype0 0 1 uI10 notransmit0 0 1 lCCCDCCDI12 finger_index0 0 1 dI12 finger_block101
2 0 CZ3 0 4 T1 0 0 3 20 1 14 14 13 255 5 94 0 1 0 15 0 0 16 0 50 255 6 89 0 15 1
7 0 0 +0 0 .007 -1 -2220446049250315e-31 0 2220446049250315e-31 -1 0 30 255 7 93
 0 18 19 0 0 +-1110223024625156e-31 .5 .007 0 0 -1 29 255 8 70 0 20 21 0 0 0 0 1
9 8 CCCCCCCA5 owner12 0 Z9 28 0 1 16 0 22 V0 16 255 10 74 0 ?23 0 24 25 0 0 1 18
 255 11 25 0 26 0 27 28 ?1 17 255 26 0 29 30 31 11 23 10 0 32 -18 27 22 0 33 11
 34 35 ?1 29 28 27 0 11 35 36 0 0 .007 29 35 24 0 27 37 28 1 0 .007 29 36 73 0 3
8 28 39 -1110223024625156e-31 .5 0 18 38 64 0 40 41 0 36 ?1 29 39 72 0 41 36 21
 1 .5 0 18 41 63 0 42 43 38 39 ?1 29 21 71 0 43 39 8 1 0 0 18 43 62 0 44 20 41 2
1 ?1 17 44 0 45 46 23 43 47 48 0 49 +18 20 61 0 23 50 43 8 ?1 17 23 0 45 44 32 2
0 26 10 0 47 +18 50 16 0 51 34 20 52 ?1 17 51 0 53 54 55 50 40 18 0 56 -18 34 19
 0 57 27 50 37 ?1 29 52 18 0 50 0 37 -1110223024625156e-31 .5 .007 29 37 21 0 34
 52 35 1 .5 .007 17 57 0 58 56 33 34 59 60 0 61 +15 255 58 3 0 62 63 0 17 56 0 5
8 62 57 50 54 64 0 30 -17 33 0 58 57 62 27 32 65 0 46 +17 59 0 66 49 61 27 57 60
 0 0 -16 60 10 0 ?57 65 64 67 0 0 1 17 61 0 66 59 68 34 42 69 0 54 -15 66 80 0 6
8 70 0 17 68 0 66 61 49 41 71 72 0 73 +17 42 0 53 55 54 41 61 69 0 68 +16 69 76
 0 ?42 24 18 19 0 0 1 17 54 0 53 42 51 34 56 64 0 0 +15 53 82 0 55 74 0 16 64 7
 0 ?54 60 75 76 0 0 1 16 75 4 0 ?30 64 48 77 0 0 1 30 76 8 0 64 77 67 0 +-111022
3024625156e-31 .5 .007 1 0 0 30 77 5 0 75 0 76 0 +0 0 .007 -2220446049250315e-31
 1 0 30 67 11 0 60 76 78 0 +1 0 .007 -2220446049250315e-31 1 0 30 78 14 0 65 67
 79 0 +0 0 .007 1 0 0 16 65 13 0 ?33 18 60 78 0 0 1 30 79 69 0 80 78 81 0 +0 0 0
 -2220446049250315e-31 1 0 16 80 57 0 ?82 83 0 79 0 0 1 30 81 68 0 83 79 84 0 +-
1110223024625156e-31 .5 0 1 0 0 16 83 53 0 ?73 72 80 81 0 0 1 30 84 67 0 72 81 8
5 0 +1 0 0 -2220446049250315e-31 1 0 16 72 49 0 ?68 48 83 84 0 0 1 30 85 66 0 48
 84 25 0 +0 0 0 1 0 0 16 48 45 0 ?44 75 72 85 0 0 1 30 25 90 0 10 85 86 0 +0 0 .
007 0 0 -1 30 86 91 0 24 25 19 0 +1 0 .007 0 0 -1 16 24 75 0 ?49 10 69 86 0 0 1
 30 19 92 0 69 86 7 0 +1 .5 .007 0 0 -1 17 49 0 66 68 59 43 46 24 0 71 +17 46 0
 45 32 44 27 49 24 0 59 -17 71 0 87 47 73 43 68 72 0 0 -15 87 44 0 82 88 0 17 47
 0 87 82 71 20 44 48 0 31 -17 73 0 87 71 82 41 55 83 0 0 +17 82 0 87 73 47 38 31
 80 0 0 +17 55 0 53 51 42 38 73 83 0 82 -17 31 0 29 26 40 20 82 80 0 0 -15 29 84
 0 31 15 0 17 40 0 29 31 30 38 51 18 0 55 +17 30 0 29 40 26 50 62 75 0 0 +16 18
 77 0 ?40 69 65 7 0 0 1 17 62 0 58 33 56 11 30 75 0 0 -14 255 15 85 89 ?90 0 29
 5 6 +0 0 90 0 22 81 1 89 186 91 15 92 0 0 93 94 14 90 79 93 ?70 15 45 5 95 -0 0
 70 15 22 13 22 29 0 0 0 0 0 0 9 15 81 1 93 187 91 90 96 0 89 97 98 14 70 81 97
 ?74 90 66 5 99 -0 0 74 90 22 15 45 78 0 44 90 0 50 95 86 0 90 100 99 0 +0 0 .00
7 0 1 0 0 0 1 50 100 65 0 88 101 95 0 +0 0 0 0 0 -1 -1 0 0 50 99 87 0 70 95 17 0
 +1 0 .007 -1 -2220446049250315e-31 0 2220446049250315e-31 -1 0 50 17 88 0 74 99
 6 0 +-1110223024625156e-31 .5 .007 0 1 0 0 0 1 14 74 83 102 ?63 70 53 5 17 +0 0
 63 70 22 81 1 102 189 91 74 103 0 97 104 105 14 63 1 104 ?88 74 58 5 101 -0 0 8
8 74 22 81 1 104 190 91 63 106 0 102 107 108 14 88 43 107 ?0 63 87 5 100 +0 0 0
 63 22 50 101 2 0 63 0 100 0 +0 0 .007 0 0 -1 -1 0 0 81 1 107 191 91 88 109 0 10
4 0 110 80 255 1 91 111 112 9000 1 1 1 1 1 1 1 1 0 FFFFTFTFFFFFFF1 81 1 109 171
 113 88 0 107 106 0 114 82 255 1 110 1415905403 80 1 113 0 115 8001 0 0 0 0 3 5
 0 0 0 FFFFTFTFFFFFFF2 81 1 106 170 113 63 0 104 103 109 116 83 255 3 114 .79215
6862745098 .819607843137255 .933333333333333 81 1 103 169 113 74 0 102 117 106 1
18 83 3 116 .792156862745098 .819607843137255 .933333333333333 81 1 117 168 113
 70 0 97 96 103 119 83 3 118 .792156862745098 .819607843137255 .933333333333333
 81 1 97 188 91 70 117 0 93 102 120 81 1 96 167 113 90 0 93 92 117 121 83 3 119
 .792156862745098 .819607843137255 .933333333333333 81 1 92 166 113 15 0 89 0 96
 122 83 3 121 .792156862745098 .819607843137255 .933333333333333 83 3 122 .79215
6862745098 .819607843137255 .933333333333333 82 1 120 1417085051 79 255 15 115 S
DL/TYSA_COLOUR79 14 112 SWEntUnchanged82 1 108 1410269307 82 1 105 1417347195 82
 1 98 1416822907 82 1 94 1417543803 17 32 0 45 23 46 11 33 65 0 62 -19 16 95 0 1
 0 9 5 S0 74 4 CI16 index_map_offset0 0 1 dCCZ20 14 3 0 0 107 2 109 0 0 0 0 0 0
 0 0 0 0 0 0 0 0 0 0 0 80 2 12 123 124 8004 0 0 0 0 3 5 0 0 0 FFTFFFFFFFFFFF2 3
 83 1 13 1 79 16 124 SDL/TYSA_DENSITY1 0 
