**ABCDEFGHIJKLMNOPQRSTUVWXYZabcdefghijklmnopqrstuvwxyz**************************
**PARASOLID !"#$%&'()*+,-./:;<=>?@[\]^_`{|}~0123456789**************************
**PART1;
MC=AMD64;
MC_MODEL=Intel64 Family 6 Model 60 Stepping 3, GenuineIntel;
MC_ID=unknown;
OS=Windows_NT;
OS_RELEASE=unknown;
FRU=Parasolid Version 29.0, build 195, 12- 2-2016;
APPL=SOLIDWORKS 2017-2017033;
SITE=;
USER=unknown;
FORMAT=text;
GUISE=transmit;
KEY=Solid part;
FILE=Solid part.x_t;
DATE=Wed Jun 12 16:55:48 2019;
**PART2;
SCH=SCH_2900195_28101;
USFLD_SIZE=0;
**PART3;
**END_OF_HEADER*****************************************************************
T51 : TRANSMIT FILE created by modeller version 290019523 SCH_2900195_28101_1300
6203 0 12 33 CCCCCCI4 mesh1006 0 I8 polyline1008 0 CCCCCCCDI5 owner1040 0 CCCCCC
I13 boundary_mesh1006 0 I17 boundary_polyline1008 0 CCCA16 index_map_offset0 0 1
 dA9 index_map82 0 A17 node_id_index_map82 0 A20 schema_embedding_map82 0 A5 chi
ld12 0 A14 lowest_node_id0 0 1 dZ1 207 0 2 0 0 0 0 0 0 1e3 1e-8 0 3 0 1 0 1 1 4
 5 6 0 0 0 7 8 0 0 0 0 0 0 0 70 11 CI9 list_type0 0 1 uI10 notransmit0 0 1 lCCCD
CCDI12 finger_index0 0 1 dI12 finger_block1012 0 CZ2 0 4 T1 0 0 2 20 1 9 9 13 25
5 4 53 0 1 0 10 0 0 11 0 52 255 5 106 0 10 12 0 0 +3.69546909090886 0 0 1 0 0 2.
082800000000205 .669637121797459 .742688444174821 0 0 -1 31 255 6 112 0 8 13 0 0
 +3.69546909090886 0 0 1 0 0 0 0 -1 2.082800000000205 19 8 CCCCCCCA5 owner12 0 Z
7 57 0 1 11 0 14 V0 16 255 8 91 0 ?15 0 16 6 0 0 1 17 255 15 0 17 15 15 0 18 8 0
 0 +16 16 86 0 ?19 8 20 13 0 0 1 17 19 0 21 19 19 0 22 16 0 0 +16 20 81 0 ?23 16
 24 25 0 0 1 31 13 111 0 16 25 6 0 +5.34112381915605 0 0 1 0 0 0 0 -1 2.28600000
00001 31 25 110 0 20 26 13 0 +7.0313783646091 0 0 1 0 0 0 0 -1 3.81000000000022
 31 26 109 0 24 27 25 0 +9.3173783646091 0 0 1 0 0 0 0 -1 3.81000000000022 16 24
 76 0 ?28 20 29 26 0 0 1 31 27 108 0 29 30 26 0 +0 0 0 1 0 0 0 0 -1 1.27 16 29 6
1 0 ?31 24 32 27 0 0 1 31 30 107 0 32 0 27 0 +2.7940000000002 0 0 1 0 0 0 0 -1 1
.27 16 32 59 0 ?33 29 0 30 0 0 1 17 33 0 34 33 33 0 35 32 0 0 +15 255 34 147 0 3
3 10 36 17 35 0 37 35 35 0 33 32 0 0 -15 37 63 0 35 38 0 14 255 38 64 39 ?0 40 4
1 4 42 +0 0 0 40 14 81 255 1 39 201 43 38 44 0 0 45 46 14 40 69 45 ?38 47 48 4 4
9 +0 0 38 47 14 15 41 146 0 31 38 37 51 255 42 100 0 38 0 49 0 +0 0 0 1 0 0 1.27
 0 0 -1 13 14 56 0 0 0 0 0 0 7 10 14 10 97 50 ?51 0 34 4 5 +0 0 51 0 14 81 1 50
 203 43 10 52 0 45 53 54 14 51 94 53 ?55 10 17 4 12 +0 0 55 10 14 81 1 53 204 43
 51 56 0 50 57 58 14 55 89 57 ?59 51 21 4 60 +0 0 59 51 14 15 17 141 0 15 51 61
 52 12 105 0 51 60 5 0 +5.34112381915605 0 0 1 0 0 2.2860000000001 .122546026122
8234 .99246283128463 0 0 -1 52 60 104 0 55 62 12 0 +7.0313783646091 0 0 1 0 0 3.
81000000000022 .669637121797545 .742688444174742 0 0 -1 51 62 103 0 59 63 60 0 +
0 0 0 1 0 0 3.81000000000022 0 0 -1 14 59 84 64 ?47 55 65 4 62 +0 0 47 55 14 50
 255 63 102 0 47 49 62 0 +9.3173783646091 3.81000000000022 0 1 0 0 0 0 -1 14 47
 79 66 ?40 59 67 4 63 +0 0 40 59 14 50 49 101 0 40 42 63 0 +0 0 0 -1 0 0 0 0 1 8
1 1 66 207 43 47 68 0 64 0 69 15 67 144 0 28 47 0 17 28 0 67 28 28 0 70 24 0 0 +
17 70 0 71 70 70 0 28 24 0 0 -15 71 83 0 70 59 0 80 255 1 43 72 73 9000 1 1 1 1
 1 1 1 1 0 FFFFTFTFFFFFFF1 81 1 68 182 74 47 0 66 75 76 77 81 1 64 206 43 59 75
 0 57 66 78 82 255 1 69 2002518180 81 1 75 181 74 59 0 64 79 68 80 81 1 57 205 4
3 55 79 0 53 64 81 82 1 78 2003108004 81 1 79 180 74 55 0 57 56 75 82 82 1 81 20
03697828 80 1 74 0 83 8001 0 0 0 0 3 5 0 0 0 FFFFTFTFFFFFFF2 81 1 56 179 74 51 0
 53 52 79 84 83 255 3 82 .792156862745098 .819607843137255 .933333333333333 81 1
 52 178 74 10 0 50 0 56 85 83 3 84 .792156862745098 .819607843137255 .9333333333
33333 83 3 85 .792156862745098 .819607843137255 .933333333333333 79 255 15 83 SD
L/TYSA_COLOUR83 3 80 .792156862745098 .819607843137255 .933333333333333 81 1 76
 183 74 40 0 45 68 44 86 83 3 77 .792156862745098 .819607843137255 .933333333333
333 81 1 45 202 43 40 76 0 39 50 87 81 1 44 184 74 38 0 39 76 0 88 83 3 86 .7921
56862745098 .819607843137255 .933333333333333 83 3 88 .792156862745098 .81960784
3137255 .933333333333333 82 1 87 2001338532 79 14 73 SWEntUnchanged15 65 143 0 2
3 59 71 17 23 0 65 23 23 0 89 20 0 0 +17 89 0 90 89 89 0 23 20 0 0 -15 90 88 0 8
9 55 0 15 61 93 0 22 51 0 17 22 0 61 22 22 0 19 16 0 0 -15 21 142 0 19 55 90 82
 1 58 2004287652 82 1 54 2004615332 17 31 0 41 31 31 0 91 29 0 0 +17 91 0 48 91
 91 0 31 29 0 0 -15 48 68 0 91 40 0 82 1 46 2000748708 15 36 96 0 18 10 0 17 18
 0 36 18 18 0 15 8 0 0 -19 11 52 0 1 0 7 4 S0 74 4 CI16 index_map_offset0 0 1 dC
CZ20 9 2 0 0 66 44 0 0 0 0 0 0 0 0 0 0 0 0 0 0 0 0 0 0 1 0 
