3D InterOp IGES (v. 2017 1.0.2), Spatial Corp. Copyright (c) 1999-2016. S      1
1H,,1H;,6HNoname,12HSpecimen.igs,13HSpatial Corp.,20H3D InterOp ACIS/IGEG      1
S,32,38, 6,308,15,6HNoname,1.000,2,2HMM,1,1.000,15H20210222.155500,     G      2
1.0e-006,0.00,6HNoname,6HNoname,11,0,15H20210222.155500;                G      3
     314       1       0       0       0       0       0       000010001D      1
     314       0       0       2       0       0       0               0D      2
     116       3       0       0       0       0       0       000010001D      3
     116       0       0       1       0       0       0               0D      4
     123       4       0       0       0       0       0       000010201D      5
     123       0       0       1       0       0       0               0D      6
     123       5       0       0       0       0       0       000010201D      7
     123       0       0       1       0       0       0               0D      8
     192       6       0       0       0       0       0       000010001D      9
     192       0      -1       1       1       0       0               0D     10
     110       7       0       0       0       0       0       000010001D     11
     110       0       0       1       0       0       0               0D     12
     502       8       0       0       0       0       0       000010001D     13
     502       0       0      11       1       0       0               0D     14
     124      19       0       0       0       0       0       000010001D     15
     124       0       0       2       0       0       0               0D     16
     100      21       0       0       0       0      15       000010001D     17
     100       0       0       2       0       0       0               0D     18
     110      23       0       0       0       0       0       000010001D     19
     110       0       0       1       0       0       0               0D     20
     110      24       0       0       0       0       0       000010001D     21
     110       0       0       2       0       0       0               0D     22
     110      26       0       0       0       0       0       000010001D     23
     110       0       0       2       0       0       0               0D     24
     110      28       0       0       0       0       0       000010001D     25
     110       0       0       1       0       0       0               0D     26
     110      29       0       0       0       0       0       000010001D     27
     110       0       0       2       0       0       0               0D     28
     124      31       0       0       0       0       0       000010001D     29
     124       0       0       2       0       0       0               0D     30
     100      33       0       0       0       0      29       000010001D     31
     100       0       0       2       0       0       0               0D     32
     110      35       0       0       0       0       0       000010001D     33
     110       0       0       2       0       0       0               0D     34
     110      37       0       0       0       0       0       000010001D     35
     110       0       0       1       0       0       0               0D     36
     110      38       0       0       0       0       0       000010001D     37
     110       0       0       1       0       0       0               0D     38
     110      39       0       0       0       0       0       000010001D     39
     110       0       0       2       0       0       0               0D     40
     110      41       0       0       0       0       0       000010001D     41
     110       0       0       1       0       0       0               0D     42
     110      42       0       0       0       0       0       000010001D     43
     110       0       0       1       0       0       0               0D     44
     110      43       0       0       0       0       0       000010001D     45
     110       0       0       1       0       0       0               0D     46
     124      44       0       0       0       0       0       000010001D     47
     124       0       0       2       0       0       0               0D     48
     100      46       0       0       0       0      47       000010001D     49
     100       0       0       2       0       0       0               0D     50
     124      48       0       0       0       0       0       000010001D     51
     124       0       0       2       0       0       0               0D     52
     100      50       0       0       0       0      51       000010001D     53
     100       0       0       2       0       0       0               0D     54
     110      52       0       0       0       0       0       000010001D     55
     110       0       0       1       0       0       0               0D     56
     124      53       0       0       0       0       0       000010001D     57
     124       0       0       2       0       0       0               0D     58
     100      55       0       0       0       0      57       000010001D     59
     100       0       0       2       0       0       0               0D     60
     110      57       0       0       0       0       0       000010001D     61
     110       0       0       1       0       0       0               0D     62
     110      58       0       0       0       0       0       000010001D     63
     110       0       0       2       0       0       0               0D     64
     110      60       0       0       0       0       0       000010001D     65
     110       0       0       1       0       0       0               0D     66
     124      61       0       0       0       0       0       000010001D     67
     124       0       0       2       0       0       0               0D     68
     100      63       0       0       0       0      67       000010001D     69
     100       0       0       2       0       0       0               0D     70
     124      65       0       0       0       0       0       000010001D     71
     124       0       0       2       0       0       0               0D     72
     100      67       0       0       0       0      71       000010001D     73
     100       0       0       2       0       0       0               0D     74
     110      69       0       0       0       0       0       000010001D     75
     110       0       0       1       0       0       0               0D     76
     110      70       0       0       0       0       0       000010001D     77
     110       0       0       1       0       0       0               0D     78
     110      71       0       0       0       0       0       000010001D     79
     110       0       0       1       0       0       0               0D     80
     110      72       0       0       0       0       0       000010001D     81
     110       0       0       1       0       0       0               0D     82
     124      73       0       0       0       0       0       000010001D     83
     124       0       0       2       0       0       0               0D     84
     100      75       0       0       0       0      83       000010001D     85
     100       0       0       2       0       0       0               0D     86
     110      77       0       0       0       0       0       000010001D     87
     110       0       0       2       0       0       0               0D     88
     110      79       0       0       0       0       0       000010001D     89
     110       0       0       1       0       0       0               0D     90
     110      80       0       0       0       0       0       000010001D     91
     110       0       0       1       0       0       0               0D     92
     110      81       0       0       0       0       0       000010001D     93
     110       0       0       2       0       0       0               0D     94
     110      83       0       0       0       0       0       000010001D     95
     110       0       0       2       0       0       0               0D     96
     110      85       0       0       0       0       0       000010001D     97
     110       0       0       1       0       0       0               0D     98
     110      86       0       0       0       0       0       000010001D     99
     110       0       0       1       0       0       0               0D    100
     110      87       0       0       0       0       0       000010001D    101
     110       0       0       1       0       0       0               0D    102
     110      88       0       0       0       0       0       000010001D    103
     110       0       0       1       0       0       0               0D    104
     110      89       0       0       0       0       0       000010001D    105
     110       0       0       1       0       0       0               0D    106
     110      90       0       0       0       0       0       000010001D    107
     110       0       0       1       0       0       0               0D    108
     110      91       0       0       0       0       0       000010001D    109
     110       0       0       2       0       0       0               0D    110
     110      93       0       0       0       0       0       000010001D    111
     110       0       0       1       0       0       0               0D    112
     110      94       0       0       0       0       0       000010001D    113
     110       0       0       1       0       0       0               0D    114
     110      95       0       0       0       0       0       000010001D    115
     110       0       0       1       0       0       0               0D    116
     504      96       0       0       0       0       0       000010001D    117
     504       0       0      11       1       0       0               0D    118
     508     107       0       0       0       0       0       000010001D    119
     508       0       0       1       1       0       0               0D    120
     510     108       0       0       0       0       0       000010001D    121
     510       0       0       1       1       0       0               0D    122
     314     109       0       0       0       0       0       000010001D    123
     314       0       0       2       0       0       0               0D    124
     116     111       0       0       0       0       0       000010001D    125
     116       0       0       1       0       0       0               0D    126
     123     112       0       0       0       0       0       000010201D    127
     123       0       0       1       0       0       0               0D    128
     123     113       0       0       0       0       0       000010201D    129
     123       0       0       1       0       0       0               0D    130
     190     114       0       0       0       0       0       000010001D    131
     190       0    -123       1       1       0       0               0D    132
     508     115       0       0       0       0       0       000010001D    133
     508       0       0       1       1       0       0               0D    134
     510     116       0       0       0       0       0       000010001D    135
     510       0       0       1       1       0       0               0D    136
     314     117       0       0       0       0       0       000010001D    137
     314       0       0       2       0       0       0               0D    138
     116     119       0       0       0       0       0       000010001D    139
     116       0       0       1       0       0       0               0D    140
     123     120       0       0       0       0       0       000010201D    141
     123       0       0       1       0       0       0               0D    142
     123     121       0       0       0       0       0       000010201D    143
     123       0       0       1       0       0       0               0D    144
     192     122       0       0       0       0       0       000010001D    145
     192       0    -137       1       1       0       0               0D    146
     508     123       0       0       0       0       0       000010001D    147
     508       0       0       1       1       0       0               0D    148
     510     124       0       0       0       0       0       000010001D    149
     510       0       0       1       1       0       0               0D    150
     314     125       0       0       0       0       0       000010001D    151
     314       0       0       2       0       0       0               0D    152
     116     127       0       0       0       0       0       000010001D    153
     116       0       0       1       0       0       0               0D    154
     123     128       0       0       0       0       0       000010201D    155
     123       0       0       1       0       0       0               0D    156
     123     129       0       0       0       0       0       000010201D    157
     123       0       0       1       0       0       0               0D    158
     190     130       0       0       0       0       0       000010001D    159
     190       0    -151       1       1       0       0               0D    160
     508     131       0       0       0       0       0       000010001D    161
     508       0       0       1       1       0       0               0D    162
     510     132       0       0       0       0       0       000010001D    163
     510       0       0       1       1       0       0               0D    164
     314     133       0       0       0       0       0       000010001D    165
     314       0       0       2       0       0       0               0D    166
     116     135       0       0       0       0       0       000010001D    167
     116       0       0       1       0       0       0               0D    168
     123     136       0       0       0       0       0       000010201D    169
     123       0       0       1       0       0       0               0D    170
     123     137       0       0       0       0       0       000010201D    171
     123       0       0       1       0       0       0               0D    172
     190     138       0       0       0       0       0       000010001D    173
     190       0    -165       1       1       0       0               0D    174
     508     139       0       0       0       0       0       000010001D    175
     508       0       0       2       1       0       0               0D    176
     510     141       0       0       0       0       0       000010001D    177
     510       0       0       1       1       0       0               0D    178
     314     142       0       0       0       0       0       000010001D    179
     314       0       0       2       0       0       0               0D    180
     116     144       0       0       0       0       0       000010001D    181
     116       0       0       1       0       0       0               0D    182
     123     145       0       0       0       0       0       000010201D    183
     123       0       0       1       0       0       0               0D    184
     123     146       0       0       0       0       0       000010201D    185
     123       0       0       1       0       0       0               0D    186
     190     147       0       0       0       0       0       000010001D    187
     190       0    -179       1       1       0       0               0D    188
     508     148       0       0       0       0       0       000010001D    189
     508       0       0       2       1       0       0               0D    190
     510     150       0       0       0       0       0       000010001D    191
     510       0       0       1       1       0       0               0D    192
     314     151       0       0       0       0       0       000010001D    193
     314       0       0       2       0       0       0               0D    194
     116     153       0       0       0       0       0       000010001D    195
     116       0       0       1       0       0       0               0D    196
     123     154       0       0       0       0       0       000010201D    197
     123       0       0       1       0       0       0               0D    198
     123     155       0       0       0       0       0       000010201D    199
     123       0       0       1       0       0       0               0D    200
     192     156       0       0       0       0       0       000010001D    201
     192       0    -193       1       1       0       0               0D    202
     508     157       0       0       0       0       0       000010001D    203
     508       0       0       1       1       0       0               0D    204
     510     158       0       0       0       0       0       000010001D    205
     510       0       0       1       1       0       0               0D    206
     314     159       0       0       0       0       0       000010001D    207
     314       0       0       2       0       0       0               0D    208
     116     161       0       0       0       0       0       000010001D    209
     116       0       0       1       0       0       0               0D    210
     123     162       0       0       0       0       0       000010201D    211
     123       0       0       1       0       0       0               0D    212
     123     163       0       0       0       0       0       000010201D    213
     123       0       0       1       0       0       0               0D    214
     190     164       0       0       0       0       0       000010001D    215
     190       0    -207       1       1       0       0               0D    216
     508     165       0       0       0       0       0       000010001D    217
     508       0       0       1       1       0       0               0D    218
     510     166       0       0       0       0       0       000010001D    219
     510       0       0       1       1       0       0               0D    220
     314     167       0       0       0       0       0       000010001D    221
     314       0       0       2       0       0       0               0D    222
     116     169       0       0       0       0       0       000010001D    223
     116       0       0       1       0       0       0               0D    224
     123     170       0       0       0       0       0       000010201D    225
     123       0       0       1       0       0       0               0D    226
     123     171       0       0       0       0       0       000010201D    227
     123       0       0       1       0       0       0               0D    228
     190     172       0       0       0       0       0       000010001D    229
     190       0    -221       1       1       0       0               0D    230
     508     173       0       0       0       0       0       000010001D    231
     508       0       0       2       1       0       0               0D    232
     510     175       0       0       0       0       0       000010001D    233
     510       0       0       1       1       0       0               0D    234
     314     176       0       0       0       0       0       000010001D    235
     314       0       0       2       0       0       0               0D    236
     116     178       0       0       0       0       0       000010001D    237
     116       0       0       1       0       0       0               0D    238
     123     179       0       0       0       0       0       000010201D    239
     123       0       0       1       0       0       0               0D    240
     123     180       0       0       0       0       0       000010201D    241
     123       0       0       1       0       0       0               0D    242
     192     181       0       0       0       0       0       000010001D    243
     192       0    -235       1       1       0       0               0D    244
     508     182       0       0       0       0       0       000010001D    245
     508       0       0       1       1       0       0               0D    246
     510     183       0       0       0       0       0       000010001D    247
     510       0       0       1       1       0       0               0D    248
     314     184       0       0       0       0       0       000010001D    249
     314       0       0       2       0       0       0               0D    250
     116     186       0       0       0       0       0       000010001D    251
     116       0       0       1       0       0       0               0D    252
     123     187       0       0       0       0       0       000010201D    253
     123       0       0       1       0       0       0               0D    254
     123     188       0       0       0       0       0       000010201D    255
     123       0       0       1       0       0       0               0D    256
     190     189       0       0       0       0       0       000010001D    257
     190       0    -249       1       1       0       0               0D    258
     508     190       0       0       0       0       0       000010001D    259
     508       0       0       1       1       0       0               0D    260
     510     191       0       0       0       0       0       000010001D    261
     510       0       0       1       1       0       0               0D    262
     314     192       0       0       0       0       0       000010001D    263
     314       0       0       2       0       0       0               0D    264
     116     194       0       0       0       0       0       000010001D    265
     116       0       0       1       0       0       0               0D    266
     123     195       0       0       0       0       0       000010201D    267
     123       0       0       1       0       0       0               0D    268
     123     196       0       0       0       0       0       000010201D    269
     123       0       0       1       0       0       0               0D    270
     190     197       0       0       0       0       0       000010001D    271
     190       0    -263       1       1       0       0               0D    272
     508     198       0       0       0       0       0       000010001D    273
     508       0       0       2       1       0       0               0D    274
     510     200       0       0       0       0       0       000010001D    275
     510       0       0       1       1       0       0               0D    276
     314     201       0       0       0       0       0       000010001D    277
     314       0       0       2       0       0       0               0D    278
     116     203       0       0       0       0       0       000010001D    279
     116       0       0       1       0       0       0               0D    280
     123     204       0       0       0       0       0       000010201D    281
     123       0       0       1       0       0       0               0D    282
     123     205       0       0       0       0       0       000010201D    283
     123       0       0       1       0       0       0               0D    284
     190     206       0       0       0       0       0       000010001D    285
     190       0    -277       1       1       0       0               0D    286
     508     207       0       0       0       0       0       000010001D    287
     508       0       0       4       1       0       0               0D    288
     510     211       0       0       0       0       0       000010001D    289
     510       0       0       1       1       0       0               0D    290
     314     212       0       0       0       0       0       000010001D    291
     314       0       0       2       0       0       0               0D    292
     116     214       0       0       0       0       0       000010001D    293
     116       0       0       1       0       0       0               0D    294
     123     215       0       0       0       0       0       000010201D    295
     123       0       0       1       0       0       0               0D    296
     123     216       0       0       0       0       0       000010201D    297
     123       0       0       1       0       0       0               0D    298
     190     217       0       0       0       0       0       000010001D    299
     190       0    -291       1       1       0       0               0D    300
     508     218       0       0       0       0       0       000010001D    301
     508       0       0       4       1       0       0               0D    302
     510     222       0       0       0       0       0       000010001D    303
     510       0       0       1       1       0       0               0D    304
     514     223       0       0       0       0       0       000010001D    305
     514       0       0       2       1       0       0               0D    306
     186     225       0       0       0       0       0       000000001D    307
     186       0       0       1       0       0       0   Solid       0D    308
314,68.62745098039216,56.07843137254902,68.62745098039216,10HMix       1P      1
edColor;                                                               1P      2
116,-48.98938810133849,-15.,3.;                                        3P      3
123,0.,0.,1.;                                                          5P      4
123,-0.70710678118655,-0.70710678118655,0.;                            7P      5
192,3,5,42.98938810133848,7;                                           9P      6
110,-6.,0.,3.,-6.,-15.,3.;                                            11P      7
502,32,10.,51.583123951777,3.,-10.,51.583123951777,3.,10.,            13P      8
33.10842634827,3.,-6.,-0.,3.,-6.,15.,3.,6.,-15.,3.,10.,               13P      9
-33.10842634827,0.,6.,15.,3.,-10.,-33.10842634827,3.,10.,             13P     10
33.10842634827,0.,-10.,33.10842634827,0.,6.,0.,3.,-10.,               13P     11
51.583123951777,0.,10.,-51.583123951777,0.,-10.,                      13P     12
-51.583123951777,0.,0.,-51.583123951777,0.,0.,-51.583123951777,       13P     13
3.,-10.,33.10842634827,3.,6.,0.,0.,-10.,-33.10842634827,0.,10.,       13P     14
-33.10842634827,3.,-10.,-51.583123951777,3.,-6.,-0.,0.,-6.,-15.,      13P     15
0.,-6.,-15.,3.,10.,51.583123951777,0.,0.,51.583123951777,0.,10.,      13P     16
-51.583123951777,3.,6.,15.,0.,-6.,15.,0.,6.,-15.,0.,0.,               13P     17
51.583123951777,3.;                                                   13P     18
124,0.90695378146414,0.4212301488354,0.,-48.98938810133849,           15P     19
-0.4212301488354,0.90695378146414,0.,-15.,0.,0.,1.,3.;                15P     20
100,0.,0.,0.,42.98938810133849,-0.00000000000026,                     17P     21
38.98938810133848,18.10842634826971;                                  17P     22
110,10.,51.583123951777,3.,10.00000000000001,33.10842634827,3.;       19P     23
110,10.,-51.583123951777,0.,10.00000000000001,-33.10842634827,        21P     24
0.;                                                                   21P     25
110,-10.,51.583123951777,3.,-10.00000000000001,33.10842634827,        23P     26
3.;                                                                   23P     27
110,0.,51.583123951777,0.,10.,51.583123951777,0.;                     25P     28
110,-10.,-51.583123951777,0.,-10.00000000000001,-33.10842634827,      27P     29
0.;                                                                   27P     30
124,-0.90695378146414,-0.4212301488354,0.,48.98938810133849,          29P     31
0.4212301488354,-0.90695378146414,0.,15.,0.,0.,1.,3.;                 29P     32
100,0.,0.,0.,42.98938810133849,-0.00000000000026,                     31P     33
38.98938810133848,18.10842634826971;                                  31P     34
110,-10.00000000000001,-33.10842634826971,3.,-10.00000000000001,      33P     35
-33.10842634826971,0.;                                                33P     36
110,0.,-51.583123951777,3.,10.,-51.583123951777,3.;                   35P     37
110,-0.,51.583123951777,3.,-10.,51.583123951777,3.;                   37P     38
110,10.00000000000001,-33.10842634826971,3.,10.00000000000001,        39P     39
-33.10842634826971,0.;                                                39P     40
110,-6.,-15.,3.,-6.,-15.,0.;                                          41P     41
110,-0.,-51.583123951777,0.,-10.,-51.583123951777,0.;                 43P     42
110,-6.,-0.,0.,-6.,15.,0.;                                            45P     43
124,-0.90695378146414,-0.4212301488354,0.,48.98938810133849,          47P     44
0.4212301488354,-0.90695378146414,0.,15.,0.,0.,1.,0.;                 47P     45
100,0.,0.,0.,42.98938810133849,-0.00000000000026,                     49P     46
38.98938810133848,18.10842634826971;                                  49P     47
124,-0.90695378146414,-0.4212301488354,0.,48.98938810133849,          51P     48
-0.4212301488354,0.90695378146414,0.,-15.,0.,0.,-1.,0.;               51P     49
100,0.,0.,0.,42.98938810133849,-0.00000000000026,                     53P     50
38.98938810133848,18.10842634826971;                                  53P     51
110,-10.,51.583123951777,3.,-10.,51.583123951777,0.;                  55P     52
124,-0.90695378146414,-0.4212301488354,0.,48.98938810133849,          57P     53
-0.4212301488354,0.90695378146414,0.,-15.,0.,0.,-1.,3.;               57P     54
100,0.,0.,0.,42.98938810133849,-0.00000000000026,                     59P     55
38.98938810133848,18.10842634826971;                                  59P     56
110,6.,0.,3.,6.,15.,3.;                                               61P     57
110,10.,-51.583123951777,3.,10.00000000000001,-33.10842634827,        63P     58
3.;                                                                   63P     59
110,-6.,0.,0.,-6.,-15.,0.;                                            65P     60
124,0.90695378146414,0.4212301488354,0.,-48.98938810133849,           67P     61
-0.4212301488354,0.90695378146414,0.,-15.,0.,0.,1.,0.;                67P     62
100,0.,0.,0.,42.98938810133849,-0.00000000000026,                     69P     63
38.98938810133848,18.10842634826971;                                  69P     64
124,0.90695378146414,0.4212301488354,0.,-48.98938810133849,           71P     65
0.4212301488354,-0.90695378146414,0.,15.,0.,0.,-1.,0.;                71P     66
100,0.,0.,0.,42.98938810133849,-0.00000000000026,                     73P     67
38.98938810133848,18.10842634826971;                                  73P     68
110,6.,0.,0.,6.,-15.,0.;                                              75P     69
110,0.,51.583123951777,3.,10.,51.583123951777,3.;                     77P     70
110,0.,-51.583123951777,0.,10.,-51.583123951777,0.;                   79P     71
110,6.,-15.,3.,6.,-15.,0.;                                            81P     72
124,0.90695378146414,0.4212301488354,0.,-48.98938810133849,           83P     73
0.4212301488354,-0.90695378146414,0.,15.,0.,0.,-1.,3.;                83P     74
100,0.,0.,0.,42.98938810133849,-0.00000000000026,                     85P     75
38.98938810133848,18.10842634826971;                                  85P     76
110,-10.00000000000001,33.10842634826971,3.,-10.00000000000001,       87P     77
33.10842634826971,0.;                                                 87P     78
110,-6.,15.,3.,-6.,15.,0.;                                            89P     79
110,6.,15.,3.,6.,15.,0.;                                              91P     80
110,10.00000000000001,33.10842634826971,3.,10.00000000000001,         93P     81
33.10842634826971,0.;                                                 93P     82
110,-10.,-51.583123951777,3.,-10.00000000000001,-33.10842634827,      95P     83
3.;                                                                   95P     84
110,6.,0.,0.,6.,15.,0.;                                               97P     85
110,10.,51.583123951777,0.,10.00000000000001,33.10842634827,0.;       99P     86
110,-10.,-51.583123951777,3.,-10.,-51.583123951777,0.;               101P     87
110,10.,-51.583123951777,3.,10.,-51.583123951777,0.;                 103P     88
110,-6.,-0.,3.,-6.,15.,3.;                                           105P     89
110,-0.,-51.583123951777,3.,-10.,-51.583123951777,3.;                107P     90
110,-10.,51.583123951777,0.,-10.00000000000001,33.10842634827,       109P     91
0.;                                                                  109P     92
110,-0.,51.583123951777,0.,-10.,51.583123951777,0.;                  111P     93
110,6.,0.,3.,6.,-15.,3.;                                             113P     94
110,10.,51.583123951777,3.,10.,51.583123951777,0.;                   115P     95
504,44,11,13,4,13,25,17,13,9,13,25,19,13,1,13,3,21,13,14,13,7,       117P     96
23,13,2,13,18,25,13,27,13,26,27,13,15,13,20,31,13,3,13,8,33,13,      117P     97
9,13,20,35,13,17,13,28,37,13,32,13,2,39,13,21,13,7,41,13,25,13,      117P     98
24,43,13,16,13,15,45,13,23,13,30,49,13,10,13,29,53,13,7,13,31,       117P     99
55,13,2,13,13,59,13,21,13,6,61,13,12,13,8,63,13,28,13,21,65,13,      117P    100
23,13,24,69,13,20,13,24,73,13,11,13,30,75,13,19,13,31,77,13,32,      117P    101
13,1,79,13,16,13,14,81,13,6,13,31,85,13,18,13,5,87,13,18,13,11,      117P    102
89,13,5,13,30,91,13,8,13,29,93,13,3,13,10,95,13,22,13,9,97,13,       117P    103
19,13,29,99,13,26,13,10,101,13,22,13,15,103,13,28,13,14,105,13,      117P    104
4,13,5,107,13,17,13,22,109,13,13,13,11,111,13,27,13,13,113,13,       117P    105
12,13,6,115,13,1,13,26;                                              117P    106
508,4,0,117,23,0,0,0,117,9,0,0,0,117,2,1,0,0,117,13,1,0;             119P    107
510,9,1,1,119;                                                       121P    108
314,68.62745098039216,56.07843137254902,68.62745098039216,10HMix     123P    109
edColor;                                                             123P    110
116,-10.,-51.583123951777,3.;                                        125P    111
123,-1.,-0.,0.;                                                      127P    112
123,0.,0.,-1.;                                                       129P    113
190,125,127,129;                                                     131P    114
508,4,0,117,7,0,0,0,117,37,0,0,0,117,34,1,0,0,117,9,1,0;             133P    115
510,131,1,1,133;                                                     135P    116
314,68.62745098039216,56.07843137254902,68.62745098039216,10HMix     137P    117
edColor;                                                             137P    118
116,48.98938810133849,-15.,3.;                                       139P    119
123,0.,0.,-1.;                                                       141P    120
123,0.70710678118655,-0.70710678118655,0.;                           143P    121
192,139,141,42.98938810133848,143;                                   145P    122
508,4,0,117,17,1,0,0,117,28,0,0,0,117,19,0,0,0,117,12,1,0;           147P    123
510,145,1,1,147;                                                     149P    124
314,68.62745098039216,56.07843137254902,68.62745098039216,10HMix     151P    125
edColor;                                                             151P    126
116,10.,-51.583123951777,3.;                                         153P    127
123,-1.,0.,0.;                                                       155P    128
123,0.,0.,-1.;                                                       157P    129
190,153,155,157;                                                     159P    130
508,4,0,117,4,1,0,0,117,12,0,0,0,117,21,0,0,0,117,38,1,0;            161P    131
510,159,1,1,161;                                                     163P    132
314,68.62745098039216,56.07843137254902,68.62745098039216,10HMix     165P    133
edColor;                                                             165P    134
116,0.,-51.583123951777,3.;                                          167P    135
123,0.,1.,0.;                                                        169P    136
123,0.,0.,1.;                                                        171P    137
190,167,169,171;                                                     173P    138
508,6,0,117,27,1,0,0,117,38,0,0,0,117,10,0,0,0,117,40,1,0,0,117,     175P    139
37,1,0,0,117,14,0,0;                                                 175P    140
510,173,1,1,175;                                                     177P    141
314,68.62745098039216,56.07843137254902,68.62745098039216,10HMix     179P    142
edColor;                                                             179P    143
116,-6.,-0.,3.;                                                      181P    144
123,-1.,-0.,0.;                                                      183P    145
123,0.,0.,1.;                                                        185P    146
190,181,183,185;                                                     187P    147
508,6,0,117,15,0,0,0,117,22,1,0,0,117,13,0,0,0,117,1,0,0,0,117,      189P    148
39,1,0,0,117,31,1,0;                                                 189P    149
510,187,1,1,189;                                                     191P    150
314,68.62745098039216,56.07843137254902,68.62745098039216,10HMix     193P    151
edColor;                                                             193P    152
116,-48.98938810133849,15.,3.;                                       195P    153
123,0.,0.,-1.;                                                       197P    154
123,-0.70710678118655,0.70710678118655,0.;                           199P    155
192,195,197,42.98938810133848,199;                                   201P    156
508,4,0,117,24,1,0,0,117,31,0,0,0,117,29,0,0,0,117,30,1,0;           203P    157
510,201,1,1,203;                                                     205P    158
314,68.62745098039216,56.07843137254902,68.62745098039216,10HMix     207P    159
edColor;                                                             207P    160
116,-10.,51.583123951777,3.;                                         209P    161
123,1.,-0.,0.;                                                       211P    162
123,0.,0.,-1.;                                                       213P    163
190,209,211,213;                                                     215P    164
508,4,0,117,41,1,0,0,117,30,0,0,0,117,5,0,0,0,117,18,1,0;            217P    165
510,215,1,1,217;                                                     219P    166
314,68.62745098039216,56.07843137254902,68.62745098039216,10HMix     221P    167
edColor;                                                             221P    168
116,6.,0.,3.;                                                        223P    169
123,-1.,0.,0.;                                                       225P    170
123,0.,0.,1.;                                                        227P    171
190,223,225,227;                                                     229P    172
508,6,0,117,35,1,0,0,117,32,0,0,0,117,20,0,0,0,117,43,1,0,0,117,     231P    173
28,1,0,0,117,25,0,0;                                                 231P    174
510,229,1,1,231;                                                     233P    175
314,68.62745098039216,56.07843137254902,68.62745098039216,10HMix     235P    176
edColor;                                                             235P    177
116,48.98938810133849,15.,3.;                                        237P    178
123,0.,0.,1.;                                                        239P    179
123,0.70710678118655,0.70710678118655,0.;                            241P    180
192,237,239,42.98938810133848,241;                                   243P    181
508,4,0,117,16,0,0,0,117,33,0,0,0,117,8,1,0,0,117,32,1,0;            245P    182
510,243,1,1,245;                                                     247P    183
314,68.62745098039216,56.07843137254902,68.62745098039216,10HMix     249P    184
edColor;                                                             249P    185
116,10.,51.583123951777,3.;                                          251P    186
123,1.,0.,0.;                                                        253P    187
123,0.,0.,-1.;                                                       255P    188
190,251,253,255;                                                     257P    189
508,4,0,117,36,0,0,0,117,44,0,0,0,117,3,1,0,0,117,33,1,0;            259P    190
510,257,1,1,259;                                                     261P    191
314,68.62745098039216,56.07843137254902,68.62745098039216,10HMix     263P    192
edColor;                                                             263P    193
116,0.,51.583123951777,3.;                                           265P    194
123,0.,1.,0.;                                                        267P    195
123,0.,0.,1.;                                                        269P    196
190,265,267,269;                                                     271P    197
508,6,0,117,6,0,0,0,117,42,1,0,0,117,18,0,0,0,117,11,0,0,0,117,      273P    198
26,1,0,0,117,44,1,0;                                                 273P    199
510,271,1,1,273;                                                     275P    200
314,68.62745098039216,56.07843137254902,68.62745098039216,10HMix     277P    201
edColor;                                                             277P    202
116,48.98938810133849,15.,3.;                                        279P    203
123,0.,0.,1.;                                                        281P    204
123,1.,0.,0.;                                                        283P    205
190,279,281,283;                                                     285P    206
508,16,0,117,39,0,0,0,117,1,1,0,0,117,2,0,0,0,117,34,0,0,0,117,      287P    207
40,0,0,0,117,10,1,0,0,117,21,1,0,0,117,19,1,0,0,117,43,0,0,0,        287P    208
117,20,1,0,0,117,8,0,0,0,117,3,0,0,0,117,26,0,0,0,117,11,1,0,0,      287P    209
117,5,1,0,0,117,29,1,0;                                              287P    210
510,285,1,1,287;                                                     289P    211
314,68.62745098039216,56.07843137254902,68.62745098039216,10HMix     291P    212
edColor;                                                             291P    213
116,48.98938810133849,15.,0.;                                        293P    214
123,0.,0.,1.;                                                        295P    215
123,1.,0.,0.;                                                        297P    216
190,293,295,297;                                                     299P    217
508,16,0,117,35,0,0,0,117,25,1,0,0,117,17,0,0,0,117,4,0,0,0,117,     301P    218
27,0,0,0,117,14,1,0,0,117,7,1,0,0,117,23,1,0,0,117,22,0,0,0,117,     301P    219
15,1,0,0,117,24,0,0,0,117,41,0,0,0,117,42,0,0,0,117,6,1,0,0,117,     301P    220
36,1,0,0,117,16,1,0;                                                 301P    221
510,299,1,1,301;                                                     303P    222
514,14,121,0,135,1,149,0,163,1,177,1,191,0,205,0,219,1,233,0,        305P    223
247,0,261,1,275,1,289,1,303,0;                                       305P    224
186,305,1,0;                                                         307P    225
S      1G      3D    308P    225                                        T      1
